# xmcd
#
# Track frame offsets:
#	150
#	19385
#	56588
#
# Disc length: 1060 seconds
#
# Revision: 0
# Processed by: cddbd v1.5.1PL0 Copyright (c) Steve Scherf et al.
# Submitted via: dBpowerAMP V4.0
#
DISCID=21042203
DTITLE=Stefan Gwildis - sie ist so sья
DYEAR=1900
DGENRE=
TTITLE0=sie ist so sья
TTITLE1=wajakla
TTITLE2=DATA
EXTD=
EXTT0=
EXTT1=
EXTT2=
PLAYORDER=
